<?xml version="1.0" standalone="no"?>
<!DOCTYPE svg PUBLIC "-//W3C//DTD SVG 20010904//EN"
 "http://www.w3.org/TR/2001/REC-SVG-20010904/DTD/svg10.dtd">
<svg version="1.0" xmlns="http://www.w3.org/2000/svg"
 width="700.000000pt" height="700.000000pt" viewBox="0 0 700.000000 700.000000"
 preserveAspectRatio="xMidYMid meet">
<metadata>
Created by potrace 1.11, written by Peter Selinger 2001-2013
</metadata>
<g transform="translate(0.000000,700.000000) scale(0.100000,-0.100000)"
fill="#000000" stroke="none">
<path d="M3678 5875 c-2 -1 -46 -6 -98 -9 -52 -4 -106 -8 -120 -10 -28 -5 -97
-15 -150 -22 -197 -26 -560 -126 -765 -211 -696 -289 -1221 -768 -1493 -1360
-51 -111 -115 -299 -137 -403 -9 -41 -18 -84 -21 -95 -18 -86 -29 -221 -29
-375 1 -191 10 -284 46 -440 11 -47 22 -96 25 -109 18 -86 99 -288 167 -421
153 -295 410 -600 690 -820 214 -168 526 -347 767 -440 47 -18 92 -36 100 -40
27 -13 314 -99 355 -106 22 -4 47 -10 55 -14 8 -4 37 -11 64 -14 27 -4 52 -9
55 -11 13 -7 230 -39 366 -52 160 -16 700 -7 775 12 8 2 38 7 65 10 44 5 79
10 190 31 17 3 68 14 115 25 47 11 96 22 109 25 14 3 28 7 33 10 4 3 16 7 25
9 54 11 234 72 343 116 730 293 1293 823 1543 1451 107 269 151 493 151 778 1
119 -10 285 -19 312 -2 7 -6 29 -9 49 -16 110 -69 292 -126 434 -33 83 -121
261 -151 305 -9 14 -40 61 -69 105 -391 592 -1120 1053 -1912 1211 -80 15
-264 44 -323 50 -38 3 -81 8 -95 10 -30 5 -517 13 -522 9z"/>
<path d="M857 1954 c-389 -90 -527 -563 -246 -843 223 -222 592 -184 768 80
139 208 99 490 -92 653 -121 102 -283 143 -430 110z"/>
<path d="M283 1065 c-84 -19 -152 -79 -186 -164 -50 -124 7 -272 128 -333 50
-26 149 -35 201 -18 130 42 208 175 180 308 -31 152 -171 241 -323 207z"/>
</g>
</svg>
