<?xml version="1.0" encoding="utf-8"?>
<!-- Generator: Adobe Illustrator 21.0.0, SVG Export Plug-In . SVG Version: 6.00 Build 0)  -->
<svg version="1.1" id="Layer_1" xmlns="http://www.w3.org/2000/svg" xmlns:xlink="http://www.w3.org/1999/xlink" x="0px" y="0px"
	 viewBox="0 0 1024 768" style="enable-background:new 0 0 1024 768;" xml:space="preserve">
<style type="text/css">
	.st0{fill:#EF7406;}
	.st1{fill:#F96A00;}
	.st2{fill:#710A77;}
</style>
<g>
	<path class="st0" d="M713.7,282.4c0,107.9-106.4,195.4-237.7,195.4c-131.3,0-237.7-87.5-237.7-195.4C238.3,174.5,344.8,87,476,87
		C607.3,87,713.7,174.5,713.7,282.4z"/>
	<path class="st1" d="M285.8,434c0,21.8-17.7,39.5-39.5,39.5c-21.8,0-39.5-17.7-39.5-39.5c0-21.8,17.7-39.4,39.5-39.4
		C268.1,394.6,285.8,412.3,285.8,434z"/>
	<path class="st1" d="M219,485.9c0,11.7-9.5,21.1-21.2,21.1c-11.7,0-21.2-9.5-21.2-21.1c0-11.7,9.5-21.2,21.2-21.2
		C209.5,464.7,219,474.1,219,485.9z"/>
	<g>
		<path class="st2" d="M475,192.7c-36.1,0-65.5,29.4-65.5,65.5c0,9.4,1.9,18.4,5.7,26.7c16.4,35.8,47.8,73.7,57,84.4
			c0.7,0.8,1.7,1.3,2.8,1.3c1.1,0,2.1-0.5,2.8-1.3c9.2-10.7,40.6-48.6,57-84.4c3.8-8.3,5.7-17.3,5.7-26.7
			C540.5,222.1,511.1,192.7,475,192.7L475,192.7z M475,292.2c-18.8,0-34-15.3-34-34c0-18.8,15.3-34,34-34c18.8,0,34,15.3,34,34
			C509,277,493.7,292.2,475,292.2L475,292.2z M475,292.2"/>
	</g>
</g>
</svg>
