<?xml version="1.0" encoding="utf-8"?>
<!-- Generator: Adobe Illustrator 21.0.0, SVG Export Plug-In . SVG Version: 6.00 Build 0)  -->
<svg version="1.1" id="Layer_1" xmlns="http://www.w3.org/2000/svg" xmlns:xlink="http://www.w3.org/1999/xlink" x="0px" y="0px"
	 viewBox="0 0 569 435" style="enable-background:new 0 0 569 435;" xml:space="preserve">
<style type="text/css">
	.st0{fill:#EF7406;}
	.st1{fill:#FFFFFF;}
	.st2{fill:none;}
	.st3{fill:#710A77;}
</style>
<g>
	<path class="st0" d="M561.5,202.4c0,108.5-109.5,196.4-244.5,196.4c-135,0-244.5-87.9-244.5-196.4C72.5,93.9,181.9,6,317,6
		C452,6,561.5,93.9,561.5,202.4z"/>
	<path class="st0" d="M123.7,354.7c0,21.9-18.2,39.7-40.6,39.7c-22.4,0-40.6-17.8-40.6-39.7c0-21.9,18.2-39.6,40.6-39.6
		C105.5,315.1,123.7,332.8,123.7,354.7z"/>
	<path class="st0" d="M54.9,406.8c0,11.7-9.7,21.3-21.8,21.3c-12,0-21.8-9.5-21.8-21.3c0-11.7,9.7-21.3,21.8-21.3
		C45.2,385.5,54.9,395,54.9,406.8z"/>
	<g>
		<path class="st1" d="M167,192.3l8.5-39.3L158.2,177c-1.2,1.4-3.1,2.4-5.1,2.4c-1.9,0-3.4-0.8-3.8-2.3l-6.8-24.1l-8.5,39.2
			c-0.6,2.5-3.2,4.4-6,4.4c-2.7,0-4.5-2-3.9-4.4l12.9-59.4c0.5-2.4,3.1-4.3,5.8-4.3c1.9,0,3.6,1,3.9,2.4l9.5,34.4
			c8.1-11.1,16.7-23.3,24.7-34.4c1.1-1.4,3-2.4,5-2.4c3,0,4.4,2.3,4,4.3L177,192.3c-0.6,2.5-3.2,4.4-5.9,4.4
			C168.3,196.7,166.5,194.7,167,192.3z"/>
		<path class="st1" d="M231.3,191.1c0,2.8-3,5.1-6.1,5.1h-26.9c-2.7,0-4.5-1.9-3.9-4.3l12.7-58.4c0.5-2.4,3.1-4.2,5.8-4.2h26.6
			c2.5,0,4.1,1.6,4.1,3.6c0,2.7-2.9,5.1-6,5.1h-21.5l-3.9,18h18.8c2.4,0,4.1,1.6,4.1,3.8c0,2.6-2.9,4.9-6.1,4.9h-18.8l-4.9,22.9
			h21.8C229.6,187.4,231.3,189,231.3,191.1z"/>
		<path class="st1" d="M241.4,182.6c0-4.7,3.2-7,6.2-7c2.5,0,4,1.6,4,5.7c0,3.6,2.6,6.8,8.2,6.8c7.1,0,12.4-4.2,12.4-11.1
			c0-2.9-1.2-5.9-4.8-8.7l-2.3-1.5c-5.6-3.5-7.1-4.6-8.7-5.7c-4.3-3.3-6.9-7.4-6.9-12.8c0-12.1,11.5-19.7,23.1-19.7
			c9.3,0,15.9,5.1,15.9,13.3c0,4.9-3.2,7.2-6.3,7.2c-2.5,0-4-1.6-4-5.8c0-3.5-2.3-5.9-7.6-5.9c-7.1,0-11.1,5-11.1,9.8
			c0,1.7,0.8,4.1,3.7,6.6c1.3,1.1,4.8,3.7,10.7,7.3c5.3,3.5,8.3,8.9,8.3,15.1c0,13.2-12.6,20.6-24.3,20.6
			C247.1,196.7,241.4,189.9,241.4,182.6z"/>
		<path class="st1" d="M290.8,182.6c0-4.7,3.2-7,6.2-7c2.5,0,4,1.6,4,5.7c0,3.6,2.6,6.8,8.2,6.8c7.1,0,12.4-4.2,12.4-11.1
			c0-2.9-1.2-5.9-4.8-8.7l-2.3-1.5c-5.6-3.5-7.1-4.6-8.7-5.7c-4.3-3.3-6.9-7.4-6.9-12.8c0-12.1,11.5-19.7,23.1-19.7
			c9.3,0,15.9,5.1,15.9,13.3c0,4.9-3.2,7.2-6.3,7.2c-2.5,0-3.9-1.6-3.9-5.8c0-3.5-2.3-5.9-7.6-5.9c-7.1,0-11.1,5-11.1,9.8
			c0,1.7,0.8,4.1,3.7,6.6c1.3,1.1,4.8,3.7,10.7,7.3c5.3,3.5,8.3,8.9,8.3,15.1c0,13.2-12.6,20.6-24.3,20.6
			C296.5,196.7,290.8,189.9,290.8,182.6z"/>
		<path class="st1" d="M383.2,191.2c0.1,2.5-2.7,5.6-6.2,5.6c-2.1,0-3.7-1.2-4-3.1l-1.3-12.6h-19.5c-2.2,4.3-4.2,8.4-6.5,12.6
			c-1,1.8-3.3,3.1-5.5,3.1c-2.9,0-5.2-2.7-3.5-5.7l-0.1,0.1l31.3-59.5c1.1-1.8,3.4-3.1,5.6-3.1c2.1,0,3.8,1.3,4,3.1L383.2,191.2
			L383.2,191.2z M371.1,172.3l-1.4-26l-12.9,26H371.1z"/>
		<path class="st1" d="M396.4,177.5l6.5-29.7c2.3-10.6,13.3-19.2,24.5-19.2c9.7,0,16.2,6.5,16.6,14.9c0.3,5.9-9.9,9.3-10.4,2.7
			c0.4-5.3-3-8.9-8.1-8.9c-5.6,0-11.3,4.8-12.5,10.5l-6.5,29.7c-1.3,5.7,2.3,10.5,7.9,10.5c5.7,0,11.8-3.9,13.3-10.5l1.9-8.7h-9
			c-6.3,0-4.6-8.4,1.8-8.7h13.2c2.8,0,4.7,1.9,4.2,4.2l-2.9,13.2c-2.3,10.6-13.3,19.2-24.5,19.2
			C401.3,196.7,394.1,188.1,396.4,177.5z"/>
		<path class="st1" d="M486.3,191.1c0,2.8-3,5.1-6.1,5.1h-26.9c-2.7,0-4.5-1.9-3.9-4.3l12.7-58.4c0.5-2.4,3.1-4.2,5.8-4.2h26.6
			c2.5,0,4.1,1.6,4.1,3.6c0,2.7-2.9,5.1-6,5.1h-21.5l-3.9,18H486c2.4,0,4.1,1.6,4.1,3.8c0,2.6-2.9,4.9-6.1,4.9h-18.8l-4.9,22.9h21.8
			C484.6,187.4,486.3,189,486.3,191.1z"/>
		<path class="st1" d="M281.6,272.9c3.5,3,5.5,7.7,5.5,12.8c0,14.1-12.4,23.3-25.9,23.3h-14.7c-2.7,0-4.6-1.9-4-4.3l12.7-58.4
			c0.5-2.3,3.2-4.2,5.9-4.2h14.7c8.6,0,15.2,6.4,15.2,14.9C290.9,263,287.1,268.8,281.6,272.9z M276.8,286.8c0-5.3-3.6-9.7-8.8-9.7
			h-9.7l-5.2,23.7h9.7C270.1,300.8,276.8,295.5,276.8,286.8z M264.1,250.3l-4,18.8h9.7c5.5,0,11-5.4,11-11.1c0-4.1-2.8-7.7-6.9-7.7
			H264.1z"/>
		<path class="st2" d="M299.2,290.4l6.5-29.7c2.3-10.5,13.3-19.2,24.5-19.2c11.2,0,18.3,8.7,16,19.2l-6.5,29.7
			c-2.3,10.6-13.2,19.2-24.4,19.2C304.1,309.6,296.9,301,299.2,290.4z M315.5,260.6l-6.5,29.7c-1.2,5.7,2.3,10.5,8,10.5
			c5.6,0,11.3-4.8,12.5-10.5l6.4-29.7c1.3-5.7-2.3-10.5-7.9-10.5C322.5,250.1,316.8,254.9,315.5,260.6z"/>
		<path class="st1" d="M390.5,303.3c0.6,2.6-2,6.3-5.8,6.3c-1.8,0-3.6-0.9-4-2.3l-6.7-23.8l-17.2,23.8c-1.1,1.3-3.1,2.3-4.9,2.3
			c-3,0-5.4-3.1-3.1-6.3l21.8-29.1c-2.8-8.8-5.8-17.5-8.5-26.4c-0.8-2.6,2.2-6.3,5.9-6.3c1.9,0,3.6,0.8,4,2.3l6,21.5l15.4-21.5
			c1.1-1.3,3.1-2.3,5-2.3c2.9,0,5.3,3.2,3,6.3l-19.8,26.4L390.5,303.3L390.5,303.3z"/>
	</g>
	<g>
		<path class="st3" d="M326.4,241.5c-14,0-25.4,11.1-25.4,24.8c0,3.6,0.7,7,2.2,10.1c6.4,13.6,18.6,27.9,22.1,32
			c0.3,0.3,0.7,0.5,1.1,0.5c0.4,0,0.8-0.2,1.1-0.5c3.6-4.1,15.8-18.4,22.1-32c1.5-3.2,2.2-6.6,2.2-10.1
			C351.8,252.7,340.4,241.5,326.4,241.5L326.4,241.5z M326.4,279.3c-7.3,0-13.2-5.8-13.2-12.9c0-7.1,5.9-12.9,13.2-12.9
			c7.3,0,13.2,5.8,13.2,12.9C339.6,273.5,333.7,279.3,326.4,279.3L326.4,279.3z M326.4,279.3"/>
	</g>
</g>
</svg>
